<?xml version="1.0" encoding="UTF-8" standalone="no"?>
<!-- Created with Inkscape (http://www.inkscape.org/) -->

<svg
   xmlns:dc="http://purl.org/dc/elements/1.1/"
   xmlns:cc="http://creativecommons.org/ns#"
   xmlns:rdf="http://www.w3.org/1999/02/22-rdf-syntax-ns#"
   xmlns:svg="http://www.w3.org/2000/svg"
   xmlns="http://www.w3.org/2000/svg"
   xmlns:sodipodi="http://sodipodi.sourceforge.net/DTD/sodipodi-0.dtd"
   xmlns:inkscape="http://www.inkscape.org/namespaces/inkscape"
   width="53.32613mm"
   height="88.435379mm"
   viewBox="0 0 53.32613 88.435379"
   version="1.1"
   id="svg833"
   inkscape:version="0.92.4 (5da689c313, 2019-01-14)"
   sodipodi:docname="bulb.svg">
  <defs
     id="defs827">
    <inkscape:path-effect
       effect="bspline"
       id="path-effect1581"
       is_visible="true"
       weight="33.333333"
       steps="2"
       helper_size="0"
       apply_no_weight="true"
       apply_with_weight="true"
       only_selected="false" />
    <inkscape:path-effect
       effect="bspline"
       id="path-effect1480"
       is_visible="true"
       weight="33.333333"
       steps="2"
       helper_size="0"
       apply_no_weight="true"
       apply_with_weight="true"
       only_selected="false" />
    <inkscape:path-effect
       effect="bspline"
       id="path-effect1476"
       is_visible="true"
       weight="33.333333"
       steps="2"
       helper_size="0"
       apply_no_weight="true"
       apply_with_weight="true"
       only_selected="false" />
    <inkscape:path-effect
       effect="bspline"
       id="path-effect1437"
       is_visible="true"
       weight="33.333333"
       steps="2"
       helper_size="0"
       apply_no_weight="true"
       apply_with_weight="true"
       only_selected="false" />
  </defs>
  <sodipodi:namedview
     id="base"
     pagecolor="#ffffff"
     bordercolor="#666666"
     borderopacity="1.0"
     inkscape:pageopacity="0.0"
     inkscape:pageshadow="2"
     inkscape:zoom="0.98994949"
     inkscape:cx="-117.52354"
     inkscape:cy="23.830354"
     inkscape:document-units="mm"
     inkscape:current-layer="layer1"
     showgrid="false"
     inkscape:window-width="1366"
     inkscape:window-height="715"
     inkscape:window-x="-8"
     inkscape:window-y="-8"
     inkscape:window-maximized="1" />
  <metadata
     id="metadata830">
    <rdf:RDF>
      <cc:Work
         rdf:about="">
        <dc:format>image/svg+xml</dc:format>
        <dc:type
           rdf:resource="http://purl.org/dc/dcmitype/StillImage" />
        <dc:title></dc:title>
      </cc:Work>
    </rdf:RDF>
  </metadata>
  <g
     inkscape:label="Layer 1"
     inkscape:groupmode="layer"
     id="layer1"
     transform="translate(-42.195514,-90.691362)">
    <path
       style="fill:#ffffff;stroke:#000000;stroke-width:0.58852643;stroke-miterlimit:4;stroke-dasharray:none"
       d="m 259.23242,343.06641 c -7.78297,-0.0515 -14.45767,1.10273 -22.58594,3.73632 -14.05081,4.55251 -23.58872,10.37934 -35.05078,21.41016 -20.77682,19.99514 -34.73308,48.03582 -40.55468,81.48438 -0.96926,5.56826 -1.24295,11.45301 -1.26563,27.11132 -0.0307,21.32599 0.23915,24.07724 3.91406,39.75196 4.03287,17.20161 7.04737,24.10161 24.60547,56.32031 25.01212,45.89665 30.0438,59.80475 31.78711,87.85742 0.14858,2.39085 0.2937,4.47895 0.4375,6.42383 h 79.03906 c 0.0417,-0.52031 0.0774,-0.93267 0.1211,-1.48633 2.73093,-34.58045 7.64745,-48.44951 33.70117,-95.06836 9.19143,-16.44657 15.98116,-30.13746 19.09961,-38.51758 2.84269,-7.63906 6.32489,-23.52848 7.63476,-34.83789 1.19539,-10.32064 0.53734,-39.62759 -1.09179,-48.6582 -8.35707,-46.32442 -31.85948,-81.60838 -64.9336,-97.48242 -10.34177,-4.96356 -16.14575,-6.62154 -26.60937,-7.60156 -2.93564,-0.27495 -5.65372,-0.4262 -8.24805,-0.44336 z"
       transform="scale(0.26458333)"
       id="path1514"
       inkscape:connector-curvature="0" />
    <path
       style="fill:#ffffff;stroke:#000000;stroke-width:0.1957584;stroke-miterlimit:4;stroke-dasharray:none"
       d="m 61.560833,176.57888 v 2.44998 h 5.09633 v -2.44998 z m 9.499679,0 v 2.44998 h 5.095811 v -2.44998 z"
       id="rect1561"
       inkscape:connector-curvature="0" />
    <path
       style="fill:none;stroke:#000000;stroke-width:0.26458332px;stroke-linecap:butt;stroke-linejoin:miter;stroke-opacity:1"
       d="m 61.560831,176.57888 c 1.699043,0 3.397819,0 2.720051,-6.25623 -0.677767,-6.25624 -3.753241,-18.85649 -5.285588,-26.29282 -1.532346,-7.43632 -1.532346,-9.75269 -1.242714,-11.24492 0.289633,-1.49223 0.868782,-2.16048 1.403169,-2.40534 0.534386,-0.24487 1.024589,-0.0666 1.425345,0.46769 0.400756,0.5343 0.712665,1.42547 0.801793,2.29409 0.08913,0.86863 -0.04448,1.71484 -0.356253,2.1827 -0.311768,0.46785 -0.801598,0.55691 -1.113621,0.13336 -0.312024,-0.42355 -0.445575,-1.35841 -0.378688,-2.07111 0.06689,-0.71271 0.334224,-1.20283 0.712736,-1.7149 0.378513,-0.51207 0.868826,-1.04696 1.469933,-1.15824 0.601107,-0.11127 1.314193,0.2007 1.759542,0.75731 0.445349,0.55662 0.62356,1.35857 0.690402,2.18271 0.06684,0.82415 0.02231,1.6703 -0.244961,2.0268 -0.267268,0.3565 -0.7571,0.22291 -1.002187,-0.2674 -0.245087,-0.4903 -0.245087,-1.33635 -0.133688,-2.00447 0.111399,-0.66813 0.334194,-1.15827 0.757233,-1.69259 0.423038,-0.53432 1.047073,-1.11378 1.559214,-1.35865 0.512141,-0.24487 0.913218,-0.15574 1.402961,0.24495 0.489742,0.4007 1.069112,1.11376 1.29187,1.87091 0.222758,0.75714 0.08913,1.55892 -0.111305,2.18263 -0.200433,0.6237 -0.467601,1.06898 -0.735068,1.13584 -0.267467,0.0669 -0.534549,-0.24475 -0.690455,-0.66801 -0.155905,-0.42327 -0.200454,-0.95785 -0.133618,-1.51456 0.06684,-0.55672 0.245095,-1.13606 0.64593,-1.64816 0.400836,-0.51209 1.024808,-0.95779 1.648277,-1.20268 0.623469,-0.24489 1.2474,-0.28945 1.714882,-1e-4 0.467481,0.28936 0.779439,0.91328 1.024453,1.58147 0.245014,0.66819 0.423165,1.38079 0.133702,1.95993 -0.289464,0.57915 -1.046528,1.02448 -1.425315,0.9575 -0.378787,-0.067 -0.378787,-0.64582 -0.334244,-1.29157 0.04454,-0.64576 0.133673,-1.3588 0.423241,-1.9155 0.289568,-0.5567 0.779763,-0.95777 1.380906,-1.18037 0.601144,-0.2226 1.314281,-0.26717 1.87088,-0.11132 0.556599,0.15585 0.95766,0.51235 1.2249,1.0245 0.26724,0.51214 0.40088,1.18034 0.311853,1.78173 -0.08903,0.60138 -0.400743,1.13575 -0.80175,1.40318 -0.401006,0.26742 -0.890715,0.26742 -1.068964,-0.11156 -0.178249,-0.37899 -0.04469,-1.13585 0.111212,-1.78165 0.155899,-0.6458 0.334149,-1.18055 0.801748,-1.53674 0.467598,-0.35618 1.225313,-0.53446 1.88998,-0.57949 0.664666,-0.045 1.25067,0.0451 1.673663,0.55712 0.422992,0.51198 0.690364,1.44778 -0.38442,9.06353 -1.074783,7.61575 -3.490819,21.9066 -3.849635,29.05352 -0.358817,7.14691 1.339749,7.14691 3.038089,7.14691"
       id="path1579"
       inkscape:connector-curvature="0"
       inkscape:path-effect="#path-effect1581"
       inkscape:original-d="m 61.560831,176.57888 c 1.699043,-2.7e-4 3.397819,-2.7e-4 5.09633,0 -3.063994,-12.51004 -6.12921,-25.1128 -9.194213,-37.66881 2.65e-4,-2.31656 2.65e-4,-4.63293 0,-6.949 0.579282,-0.66837 1.158434,-1.33662 1.737252,-2.00453 0.490051,0.17784 0.980252,0.3561 1.469983,0.53454 0.311983,0.89037 0.623892,1.78154 0.935442,2.6727 -0.133392,0.84623 -0.267004,1.69244 -0.400905,2.53906 -0.489902,0.0888 -0.979723,0.17791 -1.469982,0.26727 -0.133451,-0.93629 -0.267005,-1.87115 -0.400902,-2.80633 0.26747,-0.49014 0.534802,-0.98026 0.801806,-1.46998 0.489945,-0.53446 0.980255,-1.06935 1.469983,-1.60362 0.712615,0.31139 1.425702,0.62336 2.138156,0.93544 0.178414,0.8014 0.356624,1.60335 0.53454,2.40543 -0.04429,0.84629 -0.08883,1.69244 -0.133635,2.53906 -0.48989,-0.13395 -0.979723,-0.26754 -1.469983,-0.40091 2.65e-4,-0.84692 2.65e-4,-1.69297 0,-2.53906 0.222919,-0.4901 0.445714,-0.98025 0.668173,-1.46998 0.623488,-0.57897 1.247524,-1.15843 1.870888,-1.73725 0.400992,0.0888 0.802073,0.17791 1.202713,0.26727 0.579065,0.7121 1.158434,1.42517 1.737252,2.13815 -0.133377,0.80158 -0.267004,1.60336 -0.400905,2.40543 -0.267104,0.44535 -0.534273,0.89063 -0.801809,1.33635 -0.267192,-0.3123 -0.534273,-0.6239 -0.801806,-0.93545 -0.04428,-0.53476 -0.08883,-1.06934 -0.133636,-1.60361 0.178363,-0.57909 0.356624,-1.15843 0.534538,-1.73725 0.623554,-0.44547 1.247523,-0.89117 1.870887,-1.33635 0.623594,-0.0448 1.247523,-0.0894 1.870887,-0.13364 0.311938,0.62308 0.623893,1.247 0.935442,1.87089 0.178475,0.71257 0.356624,1.42517 0.534541,2.13815 -0.757198,0.44531 -1.514264,0.89064 -2.271792,1.33635 2.64e-4,-0.57958 2.64e-4,-1.15843 0,-1.73725 0.08931,-0.71266 0.178445,-1.4257 0.267269,-2.13815 0.490058,-0.40101 0.980254,-0.80208 1.469982,-1.20272 0.712566,-0.0448 1.425702,-0.0894 2.138156,-0.13363 0.401014,0.35595 0.802074,0.71245 1.202714,1.06908 0.133895,0.66788 0.267534,1.33608 0.400905,2.00452 -0.311645,0.53444 -0.623364,1.06881 -0.935442,1.60361 -0.490017,-2.6e-4 -0.979726,-2.6e-4 -1.469983,0 0.133972,-0.75793 0.267533,-1.51479 0.400904,-2.27179 0.178372,-0.53459 0.356624,-1.06934 0.534538,-1.60361 0.757079,-0.17834 1.514793,-0.35663 2.271792,-0.53454 0.579112,0.0443 1.158431,0.17791 1.737252,0.26727 0.267432,0.93482 0.534802,1.87062 0.801809,2.80633 -2.416675,14.29592 -4.83271,28.58677 -7.249462,42.88056 1.698906,-2.7e-4 3.397472,-2.7e-4 5.095812,0" />
  </g>
</svg>
